<svg xmlns="http://www.w3.org/2000/svg" width="869" height="783" version="1.1" desc="Created with imagetracer.js version 1.2.6"><path fill="#ffffff" stroke="#ffffff" stroke-width="1" opacity="1" d="M 0 0 L 869 0 L 869 545.5 L 868 545.5 L 867 538.5 L 864 531.5 L 851.5 516 L 847 512.5 L 844 507.5 L 847 497.5 L 847 481.5 L 845 472.5 L 841 463.5 L 827.5 448 L 813.5 440 L 803.5 437 L 749 436.5 L 759 423.5 L 764 412.5 L 769 387.5 L 770 370.5 L 771 369.5 L 771 356.5 L 772 355.5 L 772 333.5 L 773 332.5 L 773 78.5 L 772 77.5 L 772 72.5 L 768 64.5 L 762.5 59 L 749.5 53 L 732.5 53 L 724.5 56 L 715 64.5 L 712 69.5 L 710 77.5 L 710 184.5 L 706.5 189 L 702.5 190 L 698 186.5 L 697 184.5 L 697 44.5 L 693 32.5 L 687.5 26 L 676.5 20 L 660.5 19 L 646.5 24 L 639 31.5 L 635 40.5 L 635 172.5 L 630.5 179 L 625.5 179 L 622 175.5 L 621 173.5 L 621 23.5 L 619 16.5 L 611.5 7 L 599.5 1 L 580.5 1 L 572.5 4 L 564 11.5 L 559 22.5 L 559 164.5 L 555.5 170 L 550.5 171 L 546 167.5 L 545 165.5 L 545 47.5 L 540 34.5 L 534.5 29 L 520.5 23 L 506.5 23 L 499.5 25 L 490 31 L 485 38.5 L 483 44.5 L 482.5 76 L 460.5 59 L 445.5 52 L 429.5 48 L 410.5 46 L 409.5 45 L 400.5 45 L 399.5 44 L 368.5 43 L 367.5 42 L 99.5 42 L 90.5 44 L 78.5 49 L 62 63.5 L 54 79.5 L 53 90.5 L 52 91.5 L 52 99.5 L 54 110 L 37.5 121 L 31 127.5 L 23 140.5 L 20 150.5 L 20 173.5 L 24 183.5 L 11 195.5 L 5 205.5 L 2 214.5 L 1 219.5 L 1 236.5 L 4 247.5 L 8 255.5 L 18.5 268 L 23 271.5 L 26 277.5 L 23 287.5 L 23 301.5 L 29 320.5 L 42.5 336 L 56.5 344 L 66.5 347 L 95 348.5 L 87 358.5 L 81 370.5 L 77 387.5 L 75 411.5 L 74 412.5 L 74 423.5 L 73 424.5 L 73 442.5 L 72 443.5 L 72 707.5 L 75 716.5 L 83.5 726 L 95.5 731 L 111.5 731 L 121.5 727 L 129 720.5 L 134 710.5 L 134 602.5 L 138.5 595 L 142.5 594 L 146 596.5 L 148 599.5 L 148 741.5 L 151 750.5 L 158.5 759 L 168.5 764 L 184.5 765 L 198.5 760 L 206 752.5 L 210 742.5 L 210 610.5 L 214.5 605 L 219.5 605 L 223 608.5 L 224 611.5 L 224 761.5 L 227 769.5 L 234.5 778 L 244 782.5 L 0 783 L 0 0 Z "/><path fill="#ffffff" stroke="#ffffff" stroke-width="1" opacity="1" d="M 103.5 69 L 364.5 69 L 365.5 70 L 396.5 71 L 397.5 72 L 406.5 72 L 407.5 73 L 420.5 74 L 436.5 78 L 449.5 85 L 466 99.5 L 477 116.5 L 482 136.5 L 482 261.5 L 481 262.5 L 480 280.5 L 476 294.5 L 465 312.5 L 448.5 329 L 416.5 353 L 385.5 370 L 360.5 344 L 345.5 333 L 335.5 328 L 312.5 322 L 303.5 322 L 302.5 321 L 77.5 321 L 65.5 318 L 56 309.5 L 52 300.5 L 52 287.5 L 56.5 279 L 198.5 279 L 206 274.5 L 209 268.5 L 209 262.5 L 202.5 254 L 198.5 252 L 45.5 252 L 39.5 249 L 34 243.5 L 30 235.5 L 30 220.5 L 33 213.5 L 39.5 207 L 205.5 207 L 213 201.5 L 215 197.5 L 215 190.5 L 214 187.5 L 208.5 182 L 202.5 180 L 55.5 180 L 52 176.5 L 48 166.5 L 48 156.5 L 51 148.5 L 57.5 141 L 67.5 136 L 207.5 136 L 215 131.5 L 218 126.5 L 218 117.5 L 213.5 111 L 207.5 108 L 84.5 108 L 83 106.5 L 81 101.5 L 81 89.5 L 85 80.5 L 92.5 73 L 103.5 69 Z "/><path fill="#ffffff" stroke="#ffffff" stroke-width="1" opacity="1" d="M 431.5 376 L 434 377.5 L 440 388.5 L 450 401.5 L 419 421 L 411 405.5 L 402 392.5 L 431.5 376 Z "/><path fill="#ffffff" stroke="#ffffff" stroke-width="1" opacity="1" d="M 467.5 423 L 485.5 441 L 497.5 450 L 514.5 458 L 532.5 462 L 541.5 462 L 542.5 463 L 572.5 463 L 573.5 464 L 798.5 464 L 807.5 468 L 815 475.5 L 818 482.5 L 818 496.5 L 813.5 505 L 671.5 505 L 663 511.5 L 661 516.5 L 661 520.5 L 663 525.5 L 667.5 530 L 671.5 532 L 824.5 532 L 830.5 535 L 836 540.5 L 840 548.5 L 841 558.5 L 840 559.5 L 840 564.5 L 834 575 L 830.5 577 L 664.5 577 L 657 582.5 L 655 587.5 L 655 593.5 L 661.5 602 L 667.5 604 L 814.5 604 L 818 607.5 L 822 616.5 L 822 628.5 L 818 637.5 L 811.5 644 L 805.5 647 L 796.5 649 L 678.5 649 L 677.5 648 L 664.5 648 L 659.5 649 L 655 652.5 L 652 658.5 L 652 666.5 L 656.5 673 L 662.5 676 L 787 676 L 789 682.5 L 789 695.5 L 786 702.5 L 780.5 709 L 767.5 715 L 503.5 715 L 502.5 714 L 472.5 713 L 471.5 712 L 463.5 712 L 462.5 711 L 455.5 711 L 439.5 708 L 420.5 699 L 405 685.5 L 394 669.5 L 390 658.5 L 389 645.5 L 388 644.5 L 388 529.5 L 389 528.5 L 389 511.5 L 390 510.5 L 390 505.5 L 396 485.5 L 406 470.5 L 419.5 457 L 443.5 438 L 467.5 423 Z "/><path fill="#ffffff" stroke="#ffffff" stroke-width="1" opacity="1" d="M 868.5 566 L 869 783 L 265 782.5 L 273.5 779 L 280 773.5 L 285 764.5 L 286 759.5 L 286 618.5 L 289.5 614 L 294.5 613 L 298 615.5 L 300 619.5 L 300 738.5 L 304 748.5 L 311.5 756 L 323.5 761 L 338.5 761 L 350.5 756 L 358 748.5 L 362 738.5 L 362.5 665 L 366 676.5 L 372 688.5 L 379 698.5 L 396.5 716 L 409.5 725 L 424.5 732 L 452.5 738 L 468.5 739 L 469.5 740 L 480.5 740 L 481.5 741 L 499.5 741 L 500.5 742 L 770.5 742 L 785.5 738 L 793.5 734 L 808 720.5 L 816 705.5 L 818 695.5 L 818 681.5 L 817 680.5 L 817 674.5 L 822 670.5 L 822 669 L 823.5 669 L 831.5 664 L 840 655.5 L 849 638.5 L 851 627.5 L 851 616.5 L 847 599 L 848.5 599 L 860 587.5 L 866 576.5 L 868.5 566 Z "/><path fill="#000000" stroke="#000000" stroke-width="1" opacity="1" d="M 580.5 1 L 599.5 1 L 605.5 3 L 615 10.5 L 619 16.5 L 621 23.5 L 621 173.5 L 625.5 179 L 630.5 179 L 633 176.5 L 635 172.5 L 635 40.5 L 639 31.5 L 646.5 24 L 655.5 20 L 671.5 19 L 681.5 22 L 690 28.5 L 695 36.5 L 697 44.5 L 697 184.5 L 700.5 189 L 704.5 190 L 709 186.5 L 710 184.5 L 710 77.5 L 713 67.5 L 721.5 58 L 732.5 53 L 749.5 53 L 759.5 57 L 768 64.5 L 772 72.5 L 772 77.5 L 773 78.5 L 773 332.5 L 772 333.5 L 771 369.5 L 770 370.5 L 770 379.5 L 769 380.5 L 767 400.5 L 763 415.5 L 759 423.5 L 749 436.5 L 803.5 437 L 813.5 440 L 823.5 445 L 837 457.5 L 845 472.5 L 847 481.5 L 847 497.5 L 844 508.5 L 850.5 516 L 858 522.5 L 867 538.5 L 869 546.5 L 869 565.5 L 866 576.5 L 862 584.5 L 848.5 599 L 847 599 L 847 602.5 L 851 616.5 L 851 627.5 L 849 638.5 L 843 651.5 L 831.5 664 L 822 669 L 819.5 673 L 817 674.5 L 818 695.5 L 816 705.5 L 812 714.5 L 796.5 732 L 785.5 738 L 770.5 742 L 500.5 742 L 499.5 741 L 481.5 741 L 480.5 740 L 469.5 740 L 468.5 739 L 452.5 738 L 424.5 732 L 409.5 725 L 400.5 719 L 379 698.5 L 366 676.5 L 362.5 665 L 362 738.5 L 358 748.5 L 350.5 756 L 338.5 761 L 323.5 761 L 311.5 756 L 304 748.5 L 300 738.5 L 300 619.5 L 296.5 614 L 291.5 613 L 287 616.5 L 286 618.5 L 286 759.5 L 282 770.5 L 276.5 777 L 264.5 783 L 244.5 783 L 234.5 778 L 229 772.5 L 224 761.5 L 224 611.5 L 219.5 605 L 214.5 605 L 211 608.5 L 210 610.5 L 210 742.5 L 206 752.5 L 198.5 760 L 189.5 764 L 173.5 765 L 161.5 761 L 153 753.5 L 148 741.5 L 148 599.5 L 144.5 595 L 140.5 594 L 136 597.5 L 134 602.5 L 134 710.5 L 131 717.5 L 124.5 725 L 111.5 731 L 95.5 731 L 86.5 728 L 77 719.5 L 72 707.5 L 72 443.5 L 73 442.5 L 73 424.5 L 74 423.5 L 75 402.5 L 76 401.5 L 76 394.5 L 79 377.5 L 84 363.5 L 95 348.5 L 66.5 347 L 56.5 344 L 46.5 339 L 33 326.5 L 27 316.5 L 24 307.5 L 23 287.5 L 26 275.5 L 19.5 268 L 13 262.5 L 8 255.5 L 2 241.5 L 1 236.5 L 1 219.5 L 3 210.5 L 7 201.5 L 20.5 186 L 24 183.5 L 20 173.5 L 20 150.5 L 26 134.5 L 37.5 121 L 54 110 L 52 99.5 L 52 91.5 L 53 90.5 L 54 79.5 L 60 66.5 L 72.5 53 L 84.5 46 L 99.5 42 L 367.5 42 L 368.5 43 L 387.5 43 L 388.5 44 L 399.5 44 L 400.5 45 L 417.5 46 L 445.5 52 L 460.5 59 L 482.5 76 L 483 44.5 L 485 38.5 L 490 31 L 502.5 24 L 506.5 23 L 520.5 23 L 531.5 27 L 540 34.5 L 545 47.5 L 545 165.5 L 548.5 170 L 553.5 171 L 557 168.5 L 559 164.5 L 559 22.5 L 562 14.5 L 569.5 6 L 580.5 1 Z M 104 69 L 93 73 L 85 81 L 81 90 L 81 102 L 83 107 L 85 108 L 208 108 L 214 111 L 218 118 L 218 127 L 215 132 L 208 136 L 68 136 L 58 141 L 51 149 L 48 157 L 48 167 L 52 177 L 56 180 L 203 180 L 209 182 L 214 188 L 215 191 L 215 198 L 213 202 L 206 207 L 40 207 L 33 214 L 30 221 L 30 236 L 34 244 L 40 249 L 46 252 L 199 252 L 203 254 L 209 263 L 209 269 L 206 275 L 199 279 L 57 279 L 52 288 L 52 301 L 56 310 L 66 318 L 78 321 L 303 321 L 304 322 L 313 322 L 336 328 L 346 333 L 361 344 L 386 370 L 417 353 L 449 329 L 465 313 L 476 295 L 480 281 L 481 263 L 482 262 L 482 137 L 477 117 L 466 100 L 450 85 L 437 78 L 421 74 L 408 73 L 407 72 L 398 72 L 397 71 L 366 70 L 365 69 L 104 69 Z M 432 376 L 402 393 L 411 406 L 419 421 L 450 402 L 440 389 L 434 378 L 432 376 Z M 468 423 L 444 438 L 420 457 L 406 471 L 396 486 L 390 506 L 390 511 L 389 512 L 389 529 L 388 530 L 388 645 L 389 646 L 390 659 L 394 670 L 405 686 L 421 699 L 440 708 L 456 711 L 463 711 L 464 712 L 472 712 L 473 713 L 503 714 L 504 715 L 768 715 L 781 709 L 786 703 L 789 696 L 789 683 L 787 676 L 663 676 L 657 673 L 652 667 L 652 659 L 655 653 L 660 649 L 665 648 L 678 648 L 679 649 L 797 649 L 806 647 L 812 644 L 818 638 L 822 629 L 822 617 L 818 608 L 815 604 L 668 604 L 662 602 L 655 594 L 655 588 L 657 583 L 665 577 L 831 577 L 834 575 L 840 565 L 840 560 L 841 559 L 840 549 L 836 541 L 831 535 L 825 532 L 672 532 L 668 530 L 663 526 L 661 521 L 661 517 L 663 512 L 672 505 L 814 505 L 818 497 L 818 483 L 815 476 L 808 468 L 799 464 L 574 464 L 573 463 L 543 463 L 542 462 L 533 462 L 515 458 L 498 450 L 486 441 L 468 423 Z "/></svg>