<svg class="img-fluid" id="outputsvg" xmlns="http://www.w3.org/2000/svg" style="transform: matrix(0.856831, 0, 0, 0.856831, 19.4215, -3.99854); transform-origin: 50% 50%; cursor: move; transition: transform 200ms ease-in-out;" width="1366" height="1366" viewBox="0 0 13660 13660"><g id="l3pTKRaieIJHdlhLrflwxfk" fill="none" style="transform: none;"><g style="transform: none;"><path id="pfPgQRHSR" d="M0 6830 l0 -6830 6830 0 6830 0 0 6830 0 6830 -6830 0 -6830 0 0 -6830z m7621 3981 c180 -38 312 -104 416 -208 150 -151 344 -490 422 -738 12 -38 29 -82 37 -97 8 -14 14 -36 14 -49 0 -13 5 -49 12 -81 12 -57 13 -58 45 -58 18 0 33 -5 33 -11 0 -9 20 -10 73 -3 117 14 304 9 377 -11 192 -51 351 -145 485 -287 97 -103 175 -221 150 -226 -10 -2 -15 -15 -15 -38 l0 -34 794 0 794 0 16 -40 c13 -34 16 -88 16 -341 l0 -300 -22 12 c-13 7 -85 16 -164 19 -123 6 -147 10 -178 29 -72 45 -97 147 -53 211 44 66 66 75 193 78 l115 4 -3 91 -3 92 -694 3 -694 2 7 -57 c3 -32 9 -88 13 -125 7 -75 4 -72 88 -118 125 -68 219 -149 310 -265 321 -410 310 -929 -28 -1327 -70 -81 -73 -108 -23 -206 41 -82 82 -209 97 -302 l12 -70 33 0 c26 0 33 5 37 23 2 12 5 3 6 -20 2 -80 23 -198 37 -214 8 -9 14 -37 14 -65 0 -27 9 -83 20 -124 23 -89 23 -83 9 -75 -21 14 -50 129 -64 258 -6 54 -8 57 -33 57 -60 0 -69 -8 -81 -71 -35 -177 -125 -355 -250 -493 -40 -44 -51 -63 -51 -90 l0 -33 628 -6 c486 -5 650 -10 727 -22 172 -26 155 -13 155 -117 l0 -90 -27 6 c-31 6 -250 29 -453 47 -174 17 -487 16 -615 0 -55 -7 -229 -33 -387 -58 l-288 -47 0 -33 c0 -27 4 -33 21 -33 21 0 21 -3 15 -72 -9 -96 -28 -168 -72 -272 l-36 -86 -39 0 c-46 0 -44 21 -24 -220 18 -232 31 -270 92 -270 19 0 42 -4 51 -9 10 -5 79 -15 154 -22 108 -10 149 -10 190 -1 30 8 55 9 61 3 12 -12 27 -80 21 -96 -8 -20 -52 -35 -104 -35 -56 0 -223 32 -292 55 -25 9 -61 15 -80 13 -31 -3 -33 -6 -36 -43 -4 -52 71 -361 102 -423 31 -62 40 -68 115 -87 63 -17 212 -17 258 -1 19 7 23 3 32 -31 29 -102 8 -123 -125 -123 -150 0 -251 47 -340 158 -73 91 -104 167 -114 274 -5 51 -14 109 -19 128 -6 19 -11 54 -11 77 0 82 -19 141 -53 165 l-31 22 24 6 c24 6 25 8 25 100 l0 95 -47 3 c-40 3 -55 -2 -93 -28 -78 -54 -215 -111 -215 -91 0 6 -16 11 -35 11 -33 0 -35 -2 -35 -35 0 -29 4 -35 23 -36 16 -1 18 -2 5 -6 -10 -2 -18 -14 -18 -26 0 -40 49 -330 70 -420 21 -88 70 -355 70 -382 0 -10 -14 -7 -60 12 -70 31 -102 71 -120 153 -7 30 -20 73 -30 95 -10 22 -20 49 -22 60 -2 16 -12 21 -47 23 -41 3 -48 0 -100 -50 -103 -99 -242 -188 -293 -188 -19 0 -28 -11 -47 -55 -13 -30 -38 -72 -56 -92 l-33 -38 -53 53 -53 53 -101 9 c-131 11 -210 32 -321 85 -99 48 -184 108 -257 182 -63 64 -137 164 -137 186 0 9 -4 17 -10 17 -5 0 -10 9 -10 20 0 11 -4 20 -9 20 -5 0 -20 28 -34 63 -47 116 -58 195 -64 459 l-6 248 22 0 c17 0 21 6 21 33 l0 34 -182 6 c-101 4 -217 10 -258 13 l-75 7 4 -282 c2 -185 -1 -304 -9 -348 -24 -137 -85 -275 -178 -398 -179 -235 -495 -378 -764 -344 -94 11 -241 57 -308 96 -65 37 -200 135 -200 144 0 5 -20 27 -45 50 -58 54 -139 180 -178 280 -31 79 -31 79 -68 79 -36 0 -37 -1 -44 -47 -30 -214 -109 -403 -167 -403 -10 0 -37 17 -60 38 -59 56 -59 56 -33 620 7 155 7 162 -12 162 -24 0 -108 87 -164 170 -111 165 -167 384 -139 540 20 109 23 169 11 184 -6 7 -41 31 -78 52 -80 48 -229 185 -288 268 -65 91 -131 230 -160 336 -33 118 -43 281 -25 383 17 95 64 238 100 306 44 80 40 111 -19 180 -135 157 -215 318 -256 516 -8 41 -15 88 -15 105 0 27 3 30 30 30 28 0 30 3 30 35 0 18 -6 38 -12 42 -7 4 -21 23 -31 41 -17 30 -17 32 -1 32 14 0 16 7 12 45 -5 42 -4 45 18 45 20 0 24 5 24 33 0 26 -5 35 -31 46 -17 7 -46 28 -64 47 -53 52 -57 91 -54 509 l3 370 -76 3 -76 3 -21 61 c-12 34 -21 66 -21 70 0 4 206 8 459 8 252 0 473 3 490 6 27 6 37 18 72 84 100 193 295 367 504 451 132 52 250 72 380 64 209 -14 197 -16 219 30 41 89 97 173 148 224 79 80 228 173 228 142 0 -6 16 -11 35 -11 31 0 35 3 35 25 0 15 6 25 14 25 8 0 52 48 99 108 293 371 721 658 1063 712 87 13 275 4 385 -19z m-3815 -505 c87 -64 458 -443 483 -493 25 -50 27 -83 5 -129 -20 -41 -86 -92 -131 -100 -63 -12 -99 16 -356 275 -253 255 -278 287 -263 347 19 72 101 144 167 144 28 0 51 -11 95 -44z m-801 -1613 c154 -70 297 -138 318 -152 47 -30 87 -96 87 -144 0 -72 -109 -174 -176 -162 -42 7 -588 258 -629 289 -44 34 -79 106 -70 145 15 70 103 149 165 151 13 0 150 -57 305 -127z m8115 -733 c12 -23 4 -47 -22 -61 -41 -22 -89 21 -68 61 23 43 67 43 90 0z m-7884 -1025 c54 -34 95 -95 96 -145 1 -39 -42 -103 -94 -137 l-41 -28 -306 -3 c-305 -3 -307 -3 -351 21 -55 28 -110 105 -110 151 0 63 79 148 155 167 17 4 159 7 316 6 l286 -2 49 -30z m7242 -514 c13 -8 0 -10 -50 -11 -57 0 -68 3 -68 16 0 14 8 16 50 11 28 -3 58 -11 68 -16z m632 -55 c0 -2 -32 -28 -70 -56 -85 -63 -100 -83 -100 -132 0 -27 -4 -38 -15 -38 -19 0 -19 -42 -1 -127 l13 -63 -24 0 c-23 0 -23 1 -23 115 0 98 -2 115 -17 124 -15 8 -16 12 -5 22 6 7 12 23 12 36 0 20 5 23 43 23 34 0 55 9 112 50 73 51 75 53 75 46z m-479 -280 c-9 -10 -24 -13 -49 -9 -75 12 -78 22 -8 22 58 1 67 -1 57 -13z m609 -153 c0 -48 -119 -129 -225 -153 -39 -9 -51 -8 -76 7 -16 10 -29 20 -29 23 0 3 33 6 73 6 76 2 141 21 194 57 28 18 33 28 33 61 0 33 2 37 15 26 8 -7 15 -19 15 -27z m-561 -159 c-15 -19 -92 -18 -129 1 -17 9 -30 17 -30 18 0 1 38 1 86 -1 72 -3 83 -6 73 -18z m-7090 -372 c20 -16 46 -50 59 -75 28 -54 24 -87 -18 -145 -32 -45 -62 -61 -327 -172 -203 -86 -192 -67 -168 -275 17 -148 45 -255 106 -411 62 -160 210 -436 318 -598 25 -37 50 -77 56 -87 5 -11 13 -19 17 -19 5 0 8 -7 8 -15 0 -10 11 -15 35 -15 30 0 35 3 35 23 0 17 55 78 198 220 260 258 295 274 395 187 25 -22 52 -58 61 -80 29 -72 8 -102 -260 -370 -285 -287 -275 -259 -156 -420 165 -225 295 -364 374 -400 60 -27 150 -27 195 1 28 17 47 47 99 154 68 141 134 324 134 371 0 40 41 123 79 158 29 28 31 29 31 8 0 -76 -72 -564 -109 -745 -71 -340 -197 -522 -392 -566 -62 -14 -94 7 -234 151 -440 450 -804 952 -1024 1410 -117 243 -164 383 -201 604 -24 141 -25 255 -4 379 8 50 17 111 21 138 l6 47 -37 0 c-26 0 -36 -4 -36 -16 0 -11 -6 -14 -22 -9 -62 19 -110 66 -137 132 -12 30 -11 38 13 87 17 34 40 62 65 79 50 33 181 89 181 77 0 -6 15 -10 33 -10 l32 0 35 113 c29 93 35 106 38 77 5 -72 10 -80 45 -80 18 0 96 26 172 59 77 32 147 61 155 64 32 13 93 -2 129 -31z m6920 -578 c46 -8 131 -31 190 -49 58 -18 158 -47 221 -65 129 -36 240 -78 240 -90 0 -20 -23 -18 -137 10 -153 38 -277 53 -428 54 l-120 1 -3 -43 c-4 -49 -1 -54 131 -217 49 -60 94 -124 102 -141 7 -17 22 -38 32 -45 27 -19 145 -159 201 -239 26 -36 72 -95 102 -131 39 -47 65 -92 88 -151 l33 -85 -21 -45 c-27 -59 -49 -78 -141 -127 -80 -42 -197 -67 -289 -63 -25 1 -66 -3 -91 -9 -74 -17 -108 3 -148 86 -17 37 -29 70 -26 73 2 3 60 4 127 3 173 -3 297 13 367 47 l56 27 3 60 c2 52 -2 69 -29 120 -47 89 -190 302 -245 367 -27 31 -89 109 -139 174 -49 65 -116 145 -148 179 -70 73 -133 164 -146 212 -13 46 8 90 47 99 15 3 32 7 37 9 11 3 13 3 134 -21z"></path><path id="pQVDe5x6r" d="M6947 9760 c-38 -5 -82 -13 -99 -19 -17 -6 -42 -11 -54 -11 -21 0 -24 -5 -24 -35 0 -23 5 -35 14 -35 8 0 24 -35 42 -87 27 -84 28 -98 32 -310 4 -221 4 -223 -17 -223 -17 0 -21 -6 -21 -35 l0 -35 253 2 252 3 7 235 c5 189 10 249 26 305 11 39 25 90 32 115 17 61 7 116 -23 124 -37 11 -348 15 -420 6z"></path><path id="p10PuczHiH" d="M3800 8726 c0 -85 3 -105 16 -110 20 -8 521 -8 550 0 17 4 22 18 32 88 7 45 12 92 12 104 l0 22 -305 0 -305 0 0 -104z"></path><path id="pM76ei0fw" d="M6860 7140 c0 -1496 -2 -1690 -15 -1690 -10 0 -15 -10 -15 -34 0 -32 2 -34 43 -40 66 -10 294 -25 380 -26 l77 0 0 1663 c0 915 3 1698 6 1740 l7 77 -242 0 -241 0 0 -1690z"></path><path id="p88bwaCMX" d="M3800 8315 l0 -255 33 0 c30 0 35 5 59 53 32 65 113 173 184 247 46 47 54 61 54 93 l0 37 -64 0 c-76 0 -119 13 -168 51 -22 18 -49 29 -67 29 l-31 0 0 -255z"></path><path id="p16k5WYv1w" d="M10972 8544 c-23 -16 -29 -61 -16 -111 9 -32 65 -45 153 -37 l71 7 0 78 0 79 -93 0 c-68 0 -99 -4 -115 -16z"></path><path id="p3vvujxTm" d="M5373 7606 c-181 -153 -166 -136 -165 -197 1 -30 3 -313 4 -629 l3 -574 34 -23 c20 -14 49 -23 71 -23 33 0 44 7 89 56 29 31 59 70 68 87 14 28 16 29 26 11 30 -56 105 -139 160 -178 89 -63 145 -79 265 -74 83 3 106 8 165 36 122 57 221 185 248 320 7 39 9 95 6 145 -7 81 -44 229 -59 235 -4 2 -8 9 -8 16 0 20 -98 186 -155 262 -99 132 -263 311 -392 427 -241 217 -229 213 -360 103z"></path><path id="pZ4cVkPRS" d="M4880 7080 c0 -11 -7 -20 -15 -20 -19 0 -57 -53 -115 -158 -39 -71 -49 -81 -72 -82 -25 0 -28 -4 -28 -31 0 -24 13 -45 58 -92 111 -119 133 -137 168 -137 32 0 33 1 38 53 6 59 22 256 32 395 l7 92 -37 0 c-29 0 -36 -4 -36 -20z"></path></g></g><g id="l7QwY4jADN41V3Ch7gGRvxF" fill="rgb(115,115,115)" style="transform: none;"><g style="transform: none;"><path id="pXoju93HX" d="M3656 10380 c-79 -25 -137 -95 -144 -176 -8 -97 0 -108 262 -372 134 -136 258 -253 280 -264 108 -55 255 10 284 125 14 52 8 95 -21 152 -24 48 -421 452 -492 500 -54 37 -120 50 -169 35z"></path><path id="pMUD5tFDE" d="M6078 10064 c-9 -9 -48 -27 -88 -40 -176 -60 -314 -191 -406 -389 -14 -30 -24 -39 -39 -37 -11 1 -81 5 -155 8 -157 7 -270 -11 -405 -65 -209 -84 -404 -258 -505 -451 -36 -70 -43 -78 -75 -84 -19 -4 -35 -13 -35 -20 0 -10 116 -12 563 -12 l562 1 60 120 c156 312 311 586 442 779 29 43 53 80 53 82 0 3 11 17 25 32 16 17 25 38 25 59 0 38 0 38 -22 17z"></path><path id="pQiDuNE4v" d="M8490 9797 c0 -17 5 -48 10 -67 29 -96 79 -367 101 -540 11 -91 24 -176 28 -190 l6 -25 598 0 c475 0 597 2 597 12 0 7 -6 13 -12 14 -55 3 -52 1 -117 118 -59 108 -196 253 -308 327 -91 60 -204 110 -313 140 -71 19 -330 26 -406 11 l-40 -8 -19 43 c-24 57 -108 198 -117 198 -5 0 -8 -15 -8 -33z"></path><path id="pm1WlqSWB" d="M6825 9740 c-190 -51 -276 -84 -411 -161 -182 -104 -359 -257 -531 -458 -54 -63 -63 -80 -63 -113 l0 -39 544 3 c299 2 548 6 552 11 4 4 0 13 -9 20 -13 10 -16 48 -20 267 -4 244 -5 258 -30 330 -31 87 -33 104 -12 96 8 -3 15 -1 15 4 0 4 14 11 30 15 42 9 40 35 -2 34 -18 -1 -46 -5 -63 -9z"></path><path id="p1D8tgxJy6" d="M7330 9735 c0 -8 6 -15 14 -15 24 0 25 -38 0 -117 -32 -105 -44 -214 -44 -421 0 -165 -1 -174 -20 -179 -11 -3 -20 -11 -20 -19 0 -11 79 -13 478 -11 l477 2 3 32 c3 27 -10 50 -82 145 -237 316 -444 494 -659 569 -92 32 -147 37 -147 14z"></path><path id="pE663dbMw" d="M2605 8827 c-123 -70 -140 -249 -30 -333 19 -14 161 -84 317 -155 319 -147 361 -158 435 -121 80 41 132 134 118 211 -10 54 -49 114 -92 142 -21 14 -164 82 -318 152 -251 113 -287 127 -335 127 -38 0 -67 -7 -95 -23z"></path><path id="ps3Zew8pC" d="M4346 8815 c-4 -10 1 -15 15 -15 14 0 19 -5 16 -14 -3 -8 -9 -42 -13 -75 -6 -56 -8 -60 -35 -66 -16 -4 -29 -13 -29 -21 0 -21 233 -13 277 9 39 21 43 32 43 123 l0 74 -134 0 c-110 0 -135 -3 -140 -15z"></path><path id="poK6JsGeI" d="M4738 8709 l-3 -121 -44 -39 c-24 -21 -60 -43 -80 -49 -20 -5 -149 -10 -287 -10 -215 0 -253 -2 -258 -15 -4 -10 1 -15 14 -15 30 0 25 -11 -25 -60 -63 -62 -150 -178 -191 -253 l-34 -62 0 40 c-1 40 -1 40 -15 15 -10 -17 -14 -58 -15 -132 0 -65 -4 -108 -10 -108 -5 0 -10 5 -10 10 0 6 -16 10 -35 10 -43 0 -44 -10 -5 -33 29 -18 40 -37 20 -37 -5 0 -13 -18 -16 -39 -4 -28 -10 -38 -20 -34 -31 12 -11 -34 27 -62 l41 -30 -29 -5 c-21 -4 -24 -8 -14 -14 12 -8 11 -11 -5 -23 -16 -12 -18 -24 -16 -86 10 -234 106 -463 274 -659 l49 -57 -40 -83 c-79 -166 -105 -297 -98 -490 4 -112 11 -163 31 -238 30 -107 96 -245 161 -336 59 -83 208 -220 288 -268 90 -52 92 -55 76 -118 -21 -81 -18 -287 5 -376 38 -149 118 -295 219 -399 28 -29 59 -53 69 -53 10 0 17 -3 17 -8 -4 -23 3 -42 15 -42 16 0 14 -24 51 690 14 261 30 540 35 620 14 208 13 315 -4 355 -8 19 -41 67 -73 106 -32 40 -78 100 -103 134 -25 35 -77 107 -117 161 -39 55 -212 313 -383 574 -172 261 -333 501 -357 533 -24 33 -42 61 -39 64 16 16 329 -299 471 -472 114 -140 331 -391 386 -446 23 -23 79 -28 60 -5 -7 8 -8 16 -4 18 4 1 23 32 41 68 50 101 111 192 132 197 10 3 21 12 23 22 2 9 2 1 0 -16 -3 -24 0 -33 10 -33 16 0 22 23 36 153 18 159 64 297 124 372 24 29 25 29 52 11 32 -21 54 -70 62 -137 5 -38 10 -49 24 -49 14 0 18 8 17 42 0 47 -10 36 165 184 69 58 92 72 105 65 9 -5 85 -69 167 -143 225 -202 419 -428 524 -613 28 -49 51 -95 51 -102 0 -7 5 -13 10 -13 6 0 9 -3 8 -7 -1 -5 8 -37 19 -73 45 -142 39 -252 -21 -365 -93 -177 -294 -274 -458 -220 -103 33 -208 128 -287 258 -12 20 -26 37 -29 37 -4 0 -20 -22 -35 -50 -40 -72 -126 -163 -146 -155 -9 4 -22 9 -28 12 -8 3 -13 -4 -13 -19 0 -45 330 -306 562 -444 228 -135 538 -272 708 -313 163 -39 390 -64 390 -43 0 4 -9 13 -20 20 -20 12 -20 23 -20 1702 0 1496 2 1690 15 1690 8 0 15 7 15 15 0 13 -75 15 -619 15 l-619 0 -75 -132 c-113 -199 -246 -473 -322 -661 -67 -166 -119 -267 -142 -274 -19 -7 -25 54 -13 130 33 200 117 474 244 796 15 36 26 82 26 103 l0 38 -329 0 -329 0 -4 -121z m-393 -653 c32 -48 -32 -100 -75 -61 -24 22 -25 43 -3 67 23 26 59 23 78 -6z"></path><path id="pnhndfj9x" d="M7276 8815 c-4 -10 1 -15 14 -15 15 0 19 -5 16 -22 -3 -13 -5 -782 -5 -1710 -1 -1494 -3 -1688 -16 -1688 -8 0 -15 -9 -15 -20 0 -20 7 -20 313 -20 365 0 610 21 663 57 34 24 35 27 69 633 66 1170 108 1622 161 1748 18 45 62 92 84 92 24 0 67 -50 84 -97 51 -145 50 -670 -4 -1983 -6 -129 -10 -263 -10 -297 l0 -63 68 0 c37 0 128 9 202 20 185 28 557 50 846 50 173 0 243 3 252 12 18 18 15 26 -10 30 -21 3 -18 8 31 62 126 139 217 317 252 495 8 44 16 61 30 64 15 4 19 -1 20 -21 1 -15 1 -33 0 -39 -1 -7 7 -13 19 -13 23 0 25 21 11 97 -5 26 -12 87 -16 136 -5 72 -4 87 8 87 15 0 27 20 27 47 0 9 -8 13 -22 11 -15 -2 -22 -9 -22 -21 2 -13 -4 -17 -19 -15 -16 2 -23 15 -33 67 -19 91 -40 154 -86 253 l-41 86 58 69 c192 226 275 469 262 767 -11 235 -84 431 -232 621 -91 116 -185 197 -310 265 -33 18 -65 37 -71 41 -6 5 -14 45 -18 89 -3 44 -9 86 -12 95 -4 10 0 15 15 15 14 0 19 5 15 15 -5 13 -82 15 -609 15 l-602 0 -6 -222 c-6 -206 -18 -323 -37 -357 -10 -18 -43 52 -110 234 -28 77 -74 186 -100 243 l-49 102 -529 0 c-462 0 -531 -2 -536 -15z m1722 -2395 c12 -7 -2 -9 -50 -10 -64 0 -79 6 -60 24 9 10 87 0 110 -14z m497 -3 c29 -12 28 -12 -35 -17 l-65 -5 -5 -40 -6 -40 -8 44 c-8 40 -6 47 15 64 24 19 45 18 104 -6z m-638 -94 c-2 -16 -4 -3 -4 27 0 30 2 43 4 28 2 -16 2 -40 0 -55z m558 -148 c7 -38 26 -128 40 -200 46 -219 44 -209 30 -193 -35 37 -76 202 -80 318 -1 41 -4 102 -7 135 -3 33 -4 49 -1 35 2 -14 10 -56 18 -95z m-520 -24 c9 -11 15 -37 15 -67 0 -27 9 -83 20 -124 20 -77 20 -89 2 -67 -25 30 -55 188 -67 347 -4 52 -3 52 5 -9 5 -35 16 -71 25 -80z m935 77 c0 -58 14 -140 41 -242 14 -54 16 -73 7 -90 -10 -19 -13 -14 -25 44 -14 69 -43 289 -43 328 0 13 4 20 10 17 6 -3 10 -29 10 -57z m300 -187 c0 -26 -9 -62 -22 -89 -32 -65 -126 -157 -189 -187 -49 -22 -55 -23 -71 -8 -10 9 -18 23 -17 32 0 10 2 12 6 4 6 -17 55 -16 96 0 18 8 58 42 89 76 68 73 94 142 85 225 -5 49 -5 50 8 21 8 -16 14 -50 15 -74z m-979 45 c-9 -10 -24 -13 -49 -9 -75 12 -78 22 -8 22 58 1 67 -1 57 -13z m46 -309 c-6 -19 -92 -20 -126 -2 -17 8 -31 17 -31 18 0 1 36 1 81 -1 56 -3 79 -7 76 -15z"></path><path id="p1D6DMeJTi" d="M11282 8261 c-11 -7 -11 -9 2 -14 9 -4 16 -16 16 -29 0 -21 1 -21 14 -3 25 34 2 68 -32 46z"></path><path id="pCiI9PQ58" d="M2555 6991 c-47 -12 -101 -52 -129 -95 -21 -32 -26 -52 -26 -102 0 -53 5 -68 33 -110 20 -30 49 -57 77 -71 45 -24 45 -24 381 -21 l335 3 42 28 c64 42 97 99 97 166 -1 76 -34 135 -99 176 l-49 30 -316 2 c-174 1 -329 -2 -346 -6z"></path><path id="pyP7V5bGc" d="M5177 5642 c-8 -11 -26 -350 -37 -692 -12 -343 -24 -528 -45 -675 -25 -175 -29 -225 -17 -225 14 0 31 31 25 48 -3 6 -1 12 4 12 5 0 23 -36 40 -79 39 -100 120 -226 178 -280 25 -23 45 -45 45 -50 0 -9 135 -107 200 -144 69 -40 215 -85 315 -97 305 -39 630 99 817 345 92 122 155 261 178 395 7 41 10 172 8 346 l-3 282 23 0 c12 0 22 -7 22 -14 0 -8 7 -14 15 -14 8 0 15 5 15 11 0 5 8 9 18 8 35 -3 52 1 52 15 0 10 -23 15 -82 21 -211 18 -815 217 -1058 348 -98 53 -212 131 -359 246 -215 169 -265 201 -311 201 -21 0 -41 -3 -43 -8z"></path><path id="plr1YXqwy" d="M3430 5461 c-30 -10 -109 -42 -174 -70 -66 -28 -122 -49 -124 -46 -5 5 -9 28 -11 63 -1 6 -8 12 -16 12 -13 0 -15 -13 -10 -87 11 -169 25 -433 25 -463 0 -24 4 -30 20 -30 12 0 20 6 19 13 -6 50 -4 52 184 130 247 104 286 125 321 175 36 50 46 129 24 182 -46 110 -149 158 -258 121z"></path><path id="pAQ0IEFDo" d="M10400 5319 c0 -12 5 -19 13 -16 6 2 22 0 35 -4 13 -5 22 -5 22 1 0 6 7 10 15 10 8 0 15 7 15 15 0 11 -12 15 -50 15 -44 0 -50 -2 -50 -21z"></path><path id="pJn7qFwrU" d="M10760 5325 c0 -8 7 -15 15 -15 8 0 15 -4 15 -10 0 -5 7 -10 15 -10 8 0 15 4 15 9 0 5 6 9 13 8 33 -1 47 4 47 18 0 12 -13 15 -60 15 -47 0 -60 -3 -60 -15z"></path><path id="p2nB2uUy1" d="M3000 5285 c0 -8 -7 -15 -16 -15 -22 0 -201 -78 -245 -107 -46 -30 -89 -110 -89 -164 0 -101 95 -199 193 -199 35 0 36 0 30 -35 -5 -31 -3 -35 16 -35 16 0 21 6 21 25 0 14 7 51 15 83 81 308 109 462 85 462 -5 0 -10 -7 -10 -15z"></path><path id="pC1lruHOx" d="M11340 5275 c0 -8 6 -15 13 -16 31 -2 52 -9 55 -18 4 -13 32 -15 32 -2 0 5 9 7 20 4 15 -4 20 0 20 15 0 15 -9 21 -37 26 -66 10 -103 7 -103 -9z"></path><path id="pZf2PArx0" d="M9530 5199 c-52 -10 -147 -28 -210 -40 -351 -64 -637 -127 -688 -151 -34 -17 -35 -26 -56 -498 -27 -602 -43 -788 -81 -933 -17 -66 -19 -107 -6 -107 5 0 15 13 22 29 7 16 18 27 25 24 32 -12 235 120 319 206 41 43 62 51 71 26 4 -8 11 -15 17 -15 6 0 8 30 3 89 -5 70 -4 91 8 100 26 22 28 110 6 264 -32 223 -41 426 -23 550 12 86 19 93 64 62 l35 -25 -9 -78 c-7 -53 -6 -108 2 -177 6 -55 11 -125 11 -155 0 -30 5 -90 12 -132 9 -62 15 -78 29 -78 9 0 16 6 16 13 -1 6 2 36 7 65 7 47 12 55 40 67 117 51 171 78 210 104 49 34 74 39 82 16 19 -49 24 7 18 218 -6 250 1 321 34 315 22 -4 30 -38 31 -127 2 -114 22 -251 38 -251 7 0 13 5 13 12 0 6 18 39 40 72 80 124 127 271 137 426 6 98 6 98 -18 103 -19 3 -18 5 8 6 17 0 35 6 38 11 10 17 -141 10 -245 -11z"></path><path id="plivkzfT8" d="M8083 4879 c-115 -25 -341 -39 -634 -39 -215 0 -249 -2 -249 -15 0 -8 7 -15 15 -15 8 0 15 -4 15 -10 0 -5 7 -10 15 -10 8 0 15 4 15 8 0 4 8 8 19 9 17 1 19 -13 24 -280 4 -208 10 -302 22 -356 19 -87 63 -201 77 -201 5 0 7 -4 3 -9 -3 -5 2 -16 10 -24 8 -9 15 -22 15 -29 0 -18 79 -122 137 -181 73 -74 158 -134 257 -182 111 -53 190 -74 323 -85 95 -8 105 -11 128 -37 l26 -28 -5 40 c-2 22 -11 65 -20 95 -29 99 -36 259 -36 818 l0 552 -37 -1 c-21 -1 -75 -9 -120 -20z"></path><path id="pU4dlEoRf" d="M4121 4079 c-31 -13 -108 -83 -251 -224 -113 -113 -209 -205 -213 -205 -4 0 -7 6 -7 13 0 8 -11 24 -25 37 l-25 23 0 -37 c0 -23 5 -39 15 -42 8 -4 15 -11 15 -17 0 -6 52 -88 115 -184 97 -147 118 -173 140 -173 18 0 23 4 18 16 -4 11 62 84 230 252 245 246 277 288 277 362 0 71 -67 164 -137 191 -40 15 -105 10 -152 -12z"></path></g></g><g id="l7bhQFE9PLlJlAoo9buiCVU" fill="rgb(0,0,0)" stroke="rgb(5,5,0)" stroke-width="10" style="transform: none;"><g style="transform: none;"><path id="pa2fBTVP4" d="M7206 10860 c-288 -46 -626 -247 -916 -546 -238 -246 -486 -631 -765 -1189 l-60 -120 -1008 -2 c-555 0 -1011 -3 -1014 -6 -3 -3 9 -49 27 -101 l31 -95 75 -3 74 -3 3 -400 c2 -471 -1 -454 108 -518 l64 -37 3 350 2 351 38 -29 c20 -16 52 -35 71 -41 44 -14 651 -15 702 -1 20 6 56 28 80 49 l44 39 3 121 4 121 299 0 c164 0 299 -4 299 -8 0 -5 -11 -37 -26 -73 -206 -520 -300 -927 -230 -997 15 -15 19 -15 44 -2 39 23 80 98 157 287 76 188 209 462 322 661 l75 132 1299 0 1299 0 36 -72 c33 -65 56 -122 156 -383 55 -144 101 -191 127 -127 23 56 31 133 37 355 l7 227 1236 -2 1236 -3 2 -62 1 -63 -98 0 c-133 0 -178 -20 -218 -95 -23 -45 -20 -141 6 -191 37 -72 72 -86 236 -94 142 -7 181 -16 229 -58 16 -14 17 2 17 336 0 300 -2 358 -16 392 -12 29 -22 40 -38 40 -188 -4 -2599 10 -2603 14 -4 3 -12 59 -20 123 -40 356 -121 701 -215 920 -92 214 -246 460 -361 576 -103 104 -235 170 -416 209 -109 23 -350 33 -445 18z m72 -1130 c283 -32 533 -216 830 -610 44 -58 78 -108 76 -111 -5 -9 -2334 -10 -2334 -1 0 14 128 160 219 250 363 358 781 522 1209 472z m-2688 -974 c0 -59 -7 -74 -44 -93 -26 -14 -80 -17 -356 -20 -179 -3 -333 -1 -343 2 -14 6 -17 20 -17 81 l0 74 380 0 380 0 0 -44z m6559 -275 l-2 -49 -49 -4 c-71 -5 -105 7 -113 39 -10 43 22 63 101 63 l64 0 -1 -49z"></path><path id="p13jY36Fje" d="M4245 8098 c-22 -20 -28 -33 -28 -67 0 -52 24 -79 73 -85 39 -4 84 15 94 39 12 31 6 83 -12 105 -10 13 -33 23 -58 27 -33 4 -45 1 -69 -19z"></path><path id="p1441o4BM4" d="M11015 8005 c-28 -27 -34 -89 -12 -118 27 -38 117 -38 145 0 6 9 12 34 12 55 0 52 -35 88 -85 88 -25 0 -44 -8 -60 -25z"></path><path id="p7v4S0fTf" d="M8535 7903 c-31 -8 -66 -44 -86 -89 -55 -123 -96 -560 -164 -1754 -34 -606 -35 -609 -69 -633 -106 -72 -933 -76 -1418 -7 -197 28 -290 52 -453 117 -335 134 -652 322 -907 540 -50 43 -115 98 -146 122 l-55 45 7 440 c10 666 -6 832 -84 884 -60 40 -103 14 -157 -98 -55 -114 -74 -231 -103 -645 -7 -93 -16 -186 -19 -205 l-7 -34 -100 104 c-139 144 -321 352 -469 535 -103 127 -392 420 -480 487 -89 67 -155 96 -155 69 0 -5 29 -48 65 -95 63 -84 152 -217 577 -862 201 -305 326 -482 460 -651 38 -47 73 -103 80 -125 9 -30 9 -87 -1 -246 -31 -535 -75 -1383 -90 -1752 -11 -251 -6 -298 35 -341 125 -132 220 -41 284 270 57 279 73 461 95 1066 18 469 25 567 41 572 15 5 111 -61 285 -198 295 -231 456 -314 884 -457 409 -136 518 -152 1046 -152 398 0 634 18 761 56 15 4 17 -42 21 -623 5 -739 9 -775 94 -855 61 -57 100 -56 147 5 94 123 117 286 152 1082 21 477 22 486 56 503 52 25 339 88 693 152 66 12 153 28 194 36 131 26 723 122 831 135 136 16 377 16 560 0 200 -18 501 -51 523 -57 16 -5 17 5 17 119 l0 124 -52 11 c-160 35 -226 37 -1083 36 -908 -2 -1198 -12 -1475 -54 -74 -11 -152 -20 -172 -20 -45 0 -42 -33 -28 300 32 769 41 1086 41 1425 0 382 -9 531 -36 616 -25 73 -83 116 -140 102z"></path><path id="p1DdNiTu9N" d="M9770 6500 c-7 -13 -9 -46 -4 -89 6 -64 5 -69 -15 -76 -27 -8 -27 -21 2 -40 21 -13 24 -27 36 -142 7 -70 19 -163 27 -206 l15 -79 -26 -40 c-30 -45 -27 -63 14 -102 28 -27 31 -27 68 -16 103 34 206 121 251 213 27 54 32 151 13 210 -16 48 -91 101 -209 147 -51 21 -95 39 -97 42 -10 10 -7 108 3 121 8 9 4 21 -14 45 -29 37 -49 41 -64 12z m178 -279 c154 -79 168 -189 41 -325 -33 -35 -73 -69 -89 -75 -32 -11 -39 -1 -14 20 8 7 22 25 30 41 13 25 12 36 -10 115 -26 97 -46 197 -46 231 0 29 19 28 88 -7z"></path><path id="p6h8Yp9fu" d="M11200 6472 c-41 -21 -118 -68 -170 -105 -52 -37 -100 -67 -107 -67 -7 0 -17 31 -24 75 -15 87 -21 100 -43 92 -27 -10 -30 -34 -16 -122 12 -80 12 -84 -9 -110 -27 -36 -27 -51 5 -71 l25 -17 -3 -166 c-3 -182 0 -193 55 -226 66 -39 276 25 335 104 37 48 36 100 -3 141 -34 36 -169 120 -232 145 -78 31 -65 46 203 247 63 47 84 73 84 102 0 23 -16 19 -100 -22z m-167 -399 c81 -43 147 -101 147 -129 0 -38 -116 -94 -201 -97 -53 -2 -79 14 -79 49 0 27 3 28 29 15 21 -12 42 0 43 25 1 10 -4 44 -11 74 -21 95 -22 100 -10 100 6 0 43 -17 82 -37z"></path><path id="pBe5n2pky" d="M8853 6450 c-3 -11 -12 -20 -19 -20 -17 0 -19 -86 -3 -210 5 -47 12 -105 14 -130 5 -79 43 -209 71 -245 38 -51 139 -115 183 -117 125 -6 146 4 138 65 -3 21 -8 41 -11 44 -3 4 -24 0 -45 -7 -36 -11 -74 -10 -136 4 -11 2 -23 5 -27 5 -14 2 -36 58 -59 153 -12 54 -20 100 -16 104 3 3 20 -4 37 -16 33 -23 155 -48 184 -37 21 8 35 46 27 70 -6 16 -20 19 -97 22 -89 3 -148 19 -172 47 -7 8 -17 49 -22 89 -15 117 -20 109 58 104 77 -4 176 -26 223 -49 30 -15 33 -15 45 2 19 25 13 33 -40 60 -148 74 -322 106 -333 62z"></path><path id="pZCq43jOI" d="M9361 6454 c-21 -15 -23 -22 -18 -78 3 -33 11 -99 18 -146 7 -47 12 -114 11 -150 -2 -96 47 -287 86 -332 19 -22 61 -23 69 -2 6 17 -3 74 -42 264 -48 227 -53 255 -56 305 -4 49 -3 50 25 53 41 5 117 -17 143 -41 l22 -20 12 25 c9 21 8 30 -7 53 -39 60 -213 106 -263 69z"></path><path id="p17OfzcdEt" d="M10333 6450 c-3 -11 -12 -20 -20 -20 -14 0 -15 -16 -9 -117 4 -65 11 -136 16 -157 5 -22 7 -43 4 -48 -6 -9 30 -180 45 -221 14 -35 79 -99 134 -131 35 -21 60 -27 115 -29 80 -2 102 10 102 57 0 53 -12 62 -59 46 -36 -11 -74 -11 -136 4 -11 2 -23 5 -27 5 -14 2 -36 58 -59 153 -12 54 -20 100 -16 104 3 3 20 -4 37 -16 33 -23 155 -48 184 -37 21 8 35 46 27 70 -6 16 -20 19 -97 22 -88 2 -148 19 -171 46 -10 12 -33 141 -33 184 0 28 215 -1 291 -39 30 -15 33 -15 45 2 19 25 13 33 -40 60 -148 74 -322 106 -333 62z"></path><path id="pIAWszHDa" d="M3080 5513 c-47 -101 -138 -430 -195 -703 -78 -372 -23 -715 185 -1148 222 -460 588 -963 1027 -1413 148 -151 177 -168 266 -152 218 37 343 213 421 589 52 251 140 924 123 940 -3 3 -9 -11 -12 -32 -9 -59 -32 -104 -53 -104 -42 0 -121 -120 -122 -184 0 -48 -67 -231 -134 -371 -52 -107 -71 -137 -99 -154 -137 -85 -312 91 -762 769 -247 371 -371 590 -454 804 -90 230 -109 345 -136 816 -22 377 -26 404 -55 343z"></path><path id="pfGFwC3ic" d="M9468 4998 c-44 -16 -51 -61 -44 -323 3 -126 6 -261 8 -300 1 -41 -2 -69 -7 -69 -6 1 -25 5 -42 9 -22 4 -33 3 -33 -4 0 -20 47 -87 73 -104 27 -18 47 -84 47 -160 0 -23 7 -66 14 -95 8 -30 12 -60 10 -67 -9 -22 16 -137 41 -193 13 -29 45 -79 71 -113 92 -120 189 -166 359 -172 174 -6 203 14 185 128 -9 56 -21 96 -35 113 -1 1 -28 -7 -60 -19 -47 -17 -70 -20 -129 -15 -74 6 -130 20 -154 39 -30 24 -65 117 -103 278 -26 106 -38 174 -32 180 6 6 26 3 53 -6 66 -23 174 -44 279 -55 110 -10 167 4 177 46 11 42 -16 164 -35 164 -3 0 -37 -7 -76 -15 -59 -13 -89 -14 -185 -4 -63 6 -123 16 -134 21 -10 6 -33 10 -52 10 -18 0 -37 5 -42 12 -17 21 -34 86 -37 144 -2 31 -9 109 -15 172 -6 63 -15 172 -19 242 -6 102 -12 132 -26 148 -20 22 -20 22 -57 8z"></path><path id="p11Ehk9c5M" d="M10302 4864 c-30 -12 -52 -51 -52 -92 0 -75 54 -170 157 -277 32 -34 99 -114 148 -179 50 -65 112 -143 139 -174 55 -65 198 -278 245 -367 47 -87 41 -113 -31 -148 -66 -32 -120 -38 -328 -42 -179 -2 -167 0 -174 -29 -4 -17 5 -48 31 -102 30 -63 43 -79 71 -91 34 -14 123 -16 152 -3 8 4 26 4 40 0 14 -3 41 -3 60 2 19 4 71 12 114 18 81 12 203 65 253 112 30 28 63 101 63 140 0 61 -60 195 -120 267 -30 36 -76 95 -102 131 -56 80 -174 220 -201 239 -10 7 -25 28 -32 45 -8 17 -53 81 -102 141 -111 137 -136 172 -131 186 5 14 159 14 277 0 52 -6 149 -25 215 -42 187 -48 179 -48 199 2 9 24 14 46 9 50 -15 13 -142 58 -252 89 -63 18 -164 47 -224 66 -128 40 -304 75 -358 72 -21 -1 -51 -7 -66 -14z"></path><path id="poYmfWdl6" d="M8924 4845 c-19 -29 -26 -95 -27 -240 0 -167 3 -211 25 -373 24 -181 25 -248 3 -272 -10 -11 -15 -36 -15 -71 0 -60 24 -185 39 -203 5 -6 17 -43 27 -81 24 -100 52 -137 127 -168 85 -35 111 -38 121 -11 7 17 -43 311 -75 444 -32 136 -69 382 -81 550 -14 192 -15 227 -5 315 l9 70 -45 33 c-54 39 -81 40 -103 7z"></path></g></g></svg>