<?xml version="1.0" encoding="UTF-8" standalone="no"?>
<svg
   class="img-fluid"
   id="outputsvg"
   width="863.87866"
   height="878.49799"
   viewBox="0 0 8638.7866 8784.9799"
   version="1.1"
   sodipodi:docname="hifz-helper-logo.svg"
   inkscape:version="1.1 (c68e22c387, 2021-05-23)"
   xmlns:inkscape="http://www.inkscape.org/namespaces/inkscape"
   xmlns:sodipodi="http://sodipodi.sourceforge.net/DTD/sodipodi-0.dtd"
   xmlns="http://www.w3.org/2000/svg"
   xmlns:svg="http://www.w3.org/2000/svg">
  <defs
     id="defs55" />
  <sodipodi:namedview
     id="namedview53"
     pagecolor="#ffffff"
     bordercolor="#666666"
     borderopacity="1.0"
     inkscape:pageshadow="2"
     inkscape:pageopacity="0.0"
     inkscape:pagecheckerboard="0"
     showgrid="false"
     inkscape:zoom="0.57247438"
     inkscape:cx="456.789"
     inkscape:cy="618.36829"
     inkscape:window-width="1920"
     inkscape:window-height="986"
     inkscape:window-x="-11"
     inkscape:window-y="49"
     inkscape:window-maximized="1"
     inkscape:current-layer="outputsvg" />
  <g
     id="l3pTKRaieIJHdlhLrflwxfk"
     fill="none"
     transform="translate(-2251.2135,-1027.2294)">
    <g
       id="g10">
      <path
         id="pfPgQRHSR"
         d="M 0,6830 V 0 h 6830 6830 v 6830 6830 H 6830 0 Z m 7621,3981 c 180,-38 312,-104 416,-208 150,-151 344,-490 422,-738 12,-38 29,-82 37,-97 8,-14 14,-36 14,-49 0,-13 5,-49 12,-81 12,-57 13,-58 45,-58 18,0 33,-5 33,-11 0,-9 20,-10 73,-3 117,14 304,9 377,-11 192,-51 351,-145 485,-287 97,-103 175,-221 150,-226 -10,-2 -15,-15 -15,-38 v -34 h 794 794 l 16,-40 c 13,-34 16,-88 16,-341 v -300 l -22,12 c -13,7 -85,16 -164,19 -123,6 -147,10 -178,29 -72,45 -97,147 -53,211 44,66 66,75 193,78 l 115,4 -3,91 -3,92 -694,3 -694,2 7,-57 c 3,-32 9,-88 13,-125 7,-75 4,-72 88,-118 125,-68 219,-149 310,-265 321,-410 310,-929 -28,-1327 -70,-81 -73,-108 -23,-206 41,-82 82,-209 97,-302 l 12,-70 h 33 c 26,0 33,5 37,23 2,12 5,3 6,-20 2,-80 23,-198 37,-214 8,-9 14,-37 14,-65 0,-27 9,-83 20,-124 23,-89 23,-83 9,-75 -21,14 -50,129 -64,258 -6,54 -8,57 -33,57 -60,0 -69,-8 -81,-71 -35,-177 -125,-355 -250,-493 -40,-44 -51,-63 -51,-90 v -33 l 628,-6 c 486,-5 650,-10 727,-22 172,-26 155,-13 155,-117 v -90 l -27,6 c -31,6 -250,29 -453,47 -174,17 -487,16 -615,0 -55,-7 -229,-33 -387,-58 l -288,-47 v -33 c 0,-27 4,-33 21,-33 21,0 21,-3 15,-72 -9,-96 -28,-168 -72,-272 l -36,-86 h -39 c -46,0 -44,21 -24,-220 18,-232 31,-270 92,-270 19,0 42,-4 51,-9 10,-5 79,-15 154,-22 108,-10 149,-10 190,-1 30,8 55,9 61,3 12,-12 27,-80 21,-96 -8,-20 -52,-35 -104,-35 -56,0 -223,32 -292,55 -25,9 -61,15 -80,13 -31,-3 -33,-6 -36,-43 -4,-52 71,-361 102,-423 31,-62 40,-68 115,-87 63,-17 212,-17 258,-1 19,7 23,3 32,-31 29,-102 8,-123 -125,-123 -150,0 -251,47 -340,158 -73,91 -104,167 -114,274 -5,51 -14,109 -19,128 -6,19 -11,54 -11,77 0,82 -19,141 -53,165 l -31,22 24,6 c 24,6 25,8 25,100 v 95 l -47,3 c -40,3 -55,-2 -93,-28 -78,-54 -215,-111 -215,-91 0,6 -16,11 -35,11 -33,0 -35,-2 -35,-35 0,-29 4,-35 23,-36 16,-1 18,-2 5,-6 -10,-2 -18,-14 -18,-26 0,-40 49,-330 70,-420 21,-88 70,-355 70,-382 0,-10 -14,-7 -60,12 -70,31 -102,71 -120,153 -7,30 -20,73 -30,95 -10,22 -20,49 -22,60 -2,16 -12,21 -47,23 -41,3 -48,0 -100,-50 -103,-99 -242,-188 -293,-188 -19,0 -28,-11 -47,-55 -13,-30 -38,-72 -56,-92 l -33,-38 -53,53 -53,53 -101,9 c -131,11 -210,32 -321,85 -99,48 -184,108 -257,182 -63,64 -137,164 -137,186 0,9 -4,17 -10,17 -5,0 -10,9 -10,20 0,11 -4,20 -9,20 -5,0 -20,28 -34,63 -47,116 -58,195 -64,459 l -6,248 h 22 c 17,0 21,6 21,33 v 34 l -182,6 c -101,4 -217,10 -258,13 l -75,7 4,-282 c 2,-185 -1,-304 -9,-348 -24,-137 -85,-275 -178,-398 -179,-235 -495,-378 -764,-344 -94,11 -241,57 -308,96 -65,37 -200,135 -200,144 0,5 -20,27 -45,50 -58,54 -139,180 -178,280 -31,79 -31,79 -68,79 -36,0 -37,-1 -44,-47 -30,-214 -109,-403 -167,-403 -10,0 -37,17 -60,38 -59,56 -59,56 -33,620 7,155 7,162 -12,162 -24,0 -108,87 -164,170 -111,165 -167,384 -139,540 20,109 23,169 11,184 -6,7 -41,31 -78,52 -80,48 -229,185 -288,268 -65,91 -131,230 -160,336 -33,118 -43,281 -25,383 17,95 64,238 100,306 44,80 40,111 -19,180 -135,157 -215,318 -256,516 -8,41 -15,88 -15,105 0,27 3,30 30,30 28,0 30,3 30,35 0,18 -6,38 -12,42 -7,4 -21,23 -31,41 -17,30 -17,32 -1,32 14,0 16,7 12,45 -5,42 -4,45 18,45 20,0 24,5 24,33 0,26 -5,35 -31,46 -17,7 -46,28 -64,47 -53,52 -57,91 -54,509 l 3,370 -76,3 -76,3 -21,61 c -12,34 -21,66 -21,70 0,4 206,8 459,8 252,0 473,3 490,6 27,6 37,18 72,84 100,193 295,367 504,451 132,52 250,72 380,64 209,-14 197,-16 219,30 41,89 97,173 148,224 79,80 228,173 228,142 0,-6 16,-11 35,-11 31,0 35,3 35,25 0,15 6,25 14,25 8,0 52,48 99,108 293,371 721,658 1063,712 87,13 275,4 385,-19 z m -3815,-505 c 87,-64 458,-443 483,-493 25,-50 27,-83 5,-129 -20,-41 -86,-92 -131,-100 -63,-12 -99,16 -356,275 -253,255 -278,287 -263,347 19,72 101,144 167,144 28,0 51,-11 95,-44 z M 3005,8693 c 154,-70 297,-138 318,-152 47,-30 87,-96 87,-144 0,-72 -109,-174 -176,-162 -42,7 -588,258 -629,289 -44,34 -79,106 -70,145 15,70 103,149 165,151 13,0 150,-57 305,-127 z m 8115,-733 c 12,-23 4,-47 -22,-61 -41,-22 -89,21 -68,61 23,43 67,43 90,0 z M 3236,6935 c 54,-34 95,-95 96,-145 1,-39 -42,-103 -94,-137 l -41,-28 -306,-3 c -305,-3 -307,-3 -351,21 -55,28 -110,105 -110,151 0,63 79,148 155,167 17,4 159,7 316,6 l 286,-2 z m 7242,-514 c 13,-8 0,-10 -50,-11 -57,0 -68,3 -68,16 0,14 8,16 50,11 28,-3 58,-11 68,-16 z m 632,-55 c 0,-2 -32,-28 -70,-56 -85,-63 -100,-83 -100,-132 0,-27 -4,-38 -15,-38 -19,0 -19,-42 -1,-127 l 13,-63 h -24 c -23,0 -23,1 -23,115 0,98 -2,115 -17,124 -15,8 -16,12 -5,22 6,7 12,23 12,36 0,20 5,23 43,23 34,0 55,9 112,50 73,51 75,53 75,46 z m -479,-280 c -9,-10 -24,-13 -49,-9 -75,12 -78,22 -8,22 58,1 67,-1 57,-13 z m 609,-153 c 0,-48 -119,-129 -225,-153 -39,-9 -51,-8 -76,7 -16,10 -29,20 -29,23 0,3 33,6 73,6 76,2 141,21 194,57 28,18 33,28 33,61 0,33 2,37 15,26 8,-7 15,-19 15,-27 z m -561,-159 c -15,-19 -92,-18 -129,1 -17,9 -30,17 -30,18 0,1 38,1 86,-1 72,-3 83,-6 73,-18 z M 3589,5402 c 20,-16 46,-50 59,-75 28,-54 24,-87 -18,-145 -32,-45 -62,-61 -327,-172 -203,-86 -192,-67 -168,-275 17,-148 45,-255 106,-411 62,-160 210,-436 318,-598 25,-37 50,-77 56,-87 5,-11 13,-19 17,-19 5,0 8,-7 8,-15 0,-10 11,-15 35,-15 30,0 35,3 35,23 0,17 55,78 198,220 260,258 295,274 395,187 25,-22 52,-58 61,-80 29,-72 8,-102 -260,-370 -285,-287 -275,-259 -156,-420 165,-225 295,-364 374,-400 60,-27 150,-27 195,1 28,17 47,47 99,154 68,141 134,324 134,371 0,40 41,123 79,158 29,28 31,29 31,8 0,-76 -72,-564 -109,-745 -71,-340 -197,-522 -392,-566 -62,-14 -94,7 -234,151 -440,450 -804,952 -1024,1410 -117,243 -164,383 -201,604 -24,141 -25,255 -4,379 8,50 17,111 21,138 l 6,47 h -37 c -26,0 -36,-4 -36,-16 0,-11 -6,-14 -22,-9 -62,19 -110,66 -137,132 -12,30 -11,38 13,87 17,34 40,62 65,79 50,33 181,89 181,77 0,-6 15,-10 33,-10 h 32 l 35,113 c 29,93 35,106 38,77 5,-72 10,-80 45,-80 18,0 96,26 172,59 77,32 147,61 155,64 32,13 93,-2 129,-31 z m 6920,-578 c 46,-8 131,-31 190,-49 58,-18 158,-47 221,-65 129,-36 240,-78 240,-90 0,-20 -23,-18 -137,10 -153,38 -277,53 -428,54 l -120,1 -3,-43 c -4,-49 -1,-54 131,-217 49,-60 94,-124 102,-141 7,-17 22,-38 32,-45 27,-19 145,-159 201,-239 26,-36 72,-95 102,-131 39,-47 65,-92 88,-151 l 33,-85 -21,-45 c -27,-59 -49,-78 -141,-127 -80,-42 -197,-67 -289,-63 -25,1 -66,-3 -91,-9 -74,-17 -108,3 -148,86 -17,37 -29,70 -26,73 2,3 60,4 127,3 173,-3 297,13 367,47 l 56,27 3,60 c 2,52 -2,69 -29,120 -47,89 -190,302 -245,367 -27,31 -89,109 -139,174 -49,65 -116,145 -148,179 -70,73 -133,164 -146,212 -13,46 8,90 47,99 15,3 32,7 37,9 11,3 13,3 134,-21 z" />
      <path
         id="pQVDe5x6r"
         d="m 6947,9760 c -38,-5 -82,-13 -99,-19 -17,-6 -42,-11 -54,-11 -21,0 -24,-5 -24,-35 0,-23 5,-35 14,-35 8,0 24,-35 42,-87 27,-84 28,-98 32,-310 4,-221 4,-223 -17,-223 -17,0 -21,-6 -21,-35 v -35 l 253,2 252,3 7,235 c 5,189 10,249 26,305 11,39 25,90 32,115 17,61 7,116 -23,124 -37,11 -348,15 -420,6 z" />
      <path
         id="p10PuczHiH"
         d="m 3800,8726 c 0,-85 3,-105 16,-110 20,-8 521,-8 550,0 17,4 22,18 32,88 7,45 12,92 12,104 v 22 h -305 -305 z" />
      <path
         id="pM76ei0fw"
         d="m 6860,7140 c 0,-1496 -2,-1690 -15,-1690 -10,0 -15,-10 -15,-34 0,-32 2,-34 43,-40 66,-10 294,-25 380,-26 h 77 v 1663 c 0,915 3,1698 6,1740 l 7,77 h -242 -241 z" />
      <path
         id="p88bwaCMX"
         d="m 3800,8315 v -255 h 33 c 30,0 35,5 59,53 32,65 113,173 184,247 46,47 54,61 54,93 v 37 h -64 c -76,0 -119,13 -168,51 -22,18 -49,29 -67,29 h -31 z" />
      <path
         id="p16k5WYv1w"
         d="m 10972,8544 c -23,-16 -29,-61 -16,-111 9,-32 65,-45 153,-37 l 71,7 v 78 79 h -93 c -68,0 -99,-4 -115,-16 z" />
      <path
         id="p3vvujxTm"
         d="m 5373,7606 c -181,-153 -166,-136 -165,-197 1,-30 3,-313 4,-629 l 3,-574 34,-23 c 20,-14 49,-23 71,-23 33,0 44,7 89,56 29,31 59,70 68,87 14,28 16,29 26,11 30,-56 105,-139 160,-178 89,-63 145,-79 265,-74 83,3 106,8 165,36 122,57 221,185 248,320 7,39 9,95 6,145 -7,81 -44,229 -59,235 -4,2 -8,9 -8,16 0,20 -98,186 -155,262 -99,132 -263,311 -392,427 -241,217 -229,213 -360,103 z" />
      <path
         id="pZ4cVkPRS"
         d="m 4880,7080 c 0,-11 -7,-20 -15,-20 -19,0 -57,-53 -115,-158 -39,-71 -49,-81 -72,-82 -25,0 -28,-4 -28,-31 0,-24 13,-45 58,-92 111,-119 133,-137 168,-137 32,0 33,1 38,53 6,59 22,256 32,395 l 7,92 h -37 c -29,0 -36,-4 -36,-20 z" />
    </g>
  </g>
  <g
     id="l7bhQFE9PLlJlAoo9buiCVU"
     fill="currentColor"
     stroke="currentColor"
     stroke-width="10"
     transform="translate(-2846.2135,-2087.2294)">
    <g
       id="g49">
      <path
         id="pa2fBTVP4"
         d="m 7206,10860 c -288,-46 -626,-247 -916,-546 -238,-246 -486,-631 -765,-1189 l -60,-120 -1008,-2 c -555,0 -1011,-3 -1014,-6 -3,-3 9,-49 27,-101 l 31,-95 75,-3 74,-3 3,-400 c 2,-471 -1,-454 108,-518 l 64,-37 3,350 2,351 38,-29 c 20,-16 52,-35 71,-41 44,-14 651,-15 702,-1 20,6 56,28 80,49 l 44,39 3,121 4,121 h 299 c 164,0 299,-4 299,-8 0,-5 -11,-37 -26,-73 -206,-520 -300,-927 -230,-997 15,-15 19,-15 44,-2 39,23 80,98 157,287 76,188 209,462 322,661 l 75,132 h 1299 1299 l 36,-72 c 33,-65 56,-122 156,-383 55,-144 101,-191 127,-127 23,56 31,133 37,355 l 7,227 1236,-2 1236,-3 2,-62 1,-63 h -98 c -133,0 -178,-20 -218,-95 -23,-45 -20,-141 6,-191 37,-72 72,-86 236,-94 142,-7 181,-16 229,-58 16,-14 17,2 17,336 0,300 -2,358 -16,392 -12,29 -22,40 -38,40 -188,-4 -2599,10 -2603,14 -4,3 -12,59 -20,123 -40,356 -121,701 -215,920 -92,214 -246,460 -361,576 -103,104 -235,170 -416,209 -109,23 -350,33 -445,18 z m 72,-1130 c 283,-32 533,-216 830,-610 44,-58 78,-108 76,-111 -5,-9 -2334,-10 -2334,-1 0,14 128,160 219,250 363,358 781,522 1209,472 z M 4590,8756 c 0,-59 -7,-74 -44,-93 -26,-14 -80,-17 -356,-20 -179,-3 -333,-1 -343,2 -14,6 -17,20 -17,81 v 74 h 380 380 z m 6559,-275 -2,-49 -49,-4 c -71,-5 -105,7 -113,39 -10,43 22,63 101,63 h 64 z" />
      <path
         id="p13jY36Fje"
         d="m 4245,8098 c -22,-20 -28,-33 -28,-67 0,-52 24,-79 73,-85 39,-4 84,15 94,39 12,31 6,83 -12,105 -10,13 -33,23 -58,27 -33,4 -45,1 -69,-19 z" />
      <path
         id="p1441o4BM4"
         d="m 11015,8005 c -28,-27 -34,-89 -12,-118 27,-38 117,-38 145,0 6,9 12,34 12,55 0,52 -35,88 -85,88 -25,0 -44,-8 -60,-25 z" />
      <path
         id="p7v4S0fTf"
         d="m 8535,7903 c -31,-8 -66,-44 -86,-89 -55,-123 -96,-560 -164,-1754 -34,-606 -35,-609 -69,-633 -106,-72 -933,-76 -1418,-7 -197,28 -290,52 -453,117 -335,134 -652,322 -907,540 -50,43 -115,98 -146,122 l -55,45 7,440 c 10,666 -6,832 -84,884 -60,40 -103,14 -157,-98 -55,-114 -74,-231 -103,-645 -7,-93 -16,-186 -19,-205 l -7,-34 -100,104 c -139,144 -321,352 -469,535 -103,127 -392,420 -480,487 -89,67 -155,96 -155,69 0,-5 29,-48 65,-95 63,-84 152,-217 577,-862 201,-305 326,-482 460,-651 38,-47 73,-103 80,-125 9,-30 9,-87 -1,-246 -31,-535 -75,-1383 -90,-1752 -11,-251 -6,-298 35,-341 125,-132 220,-41 284,270 57,279 73,461 95,1066 18,469 25,567 41,572 15,5 111,-61 285,-198 295,-231 456,-314 884,-457 409,-136 518,-152 1046,-152 398,0 634,18 761,56 15,4 17,-42 21,-623 5,-739 9,-775 94,-855 61,-57 100,-56 147,5 94,123 117,286 152,1082 21,477 22,486 56,503 52,25 339,88 693,152 66,12 153,28 194,36 131,26 723,122 831,135 136,16 377,16 560,0 200,-18 501,-51 523,-57 16,-5 17,5 17,119 v 124 l -52,11 c -160,35 -226,37 -1083,36 -908,-2 -1198,-12 -1475,-54 -74,-11 -152,-20 -172,-20 -45,0 -42,-33 -28,300 32,769 41,1086 41,1425 0,382 -9,531 -36,616 -25,73 -83,116 -140,102 z" />
      <path
         id="p1DdNiTu9N"
         d="m 9770,6500 c -7,-13 -9,-46 -4,-89 6,-64 5,-69 -15,-76 -27,-8 -27,-21 2,-40 21,-13 24,-27 36,-142 7,-70 19,-163 27,-206 l 15,-79 -26,-40 c -30,-45 -27,-63 14,-102 28,-27 31,-27 68,-16 103,34 206,121 251,213 27,54 32,151 13,210 -16,48 -91,101 -209,147 -51,21 -95,39 -97,42 -10,10 -7,108 3,121 8,9 4,21 -14,45 -29,37 -49,41 -64,12 z m 178,-279 c 154,-79 168,-189 41,-325 -33,-35 -73,-69 -89,-75 -32,-11 -39,-1 -14,20 8,7 22,25 30,41 13,25 12,36 -10,115 -26,97 -46,197 -46,231 0,29 19,28 88,-7 z" />
      <path
         id="p6h8Yp9fu"
         d="m 11200,6472 c -41,-21 -118,-68 -170,-105 -52,-37 -100,-67 -107,-67 -7,0 -17,31 -24,75 -15,87 -21,100 -43,92 -27,-10 -30,-34 -16,-122 12,-80 12,-84 -9,-110 -27,-36 -27,-51 5,-71 l 25,-17 -3,-166 c -3,-182 0,-193 55,-226 66,-39 276,25 335,104 37,48 36,100 -3,141 -34,36 -169,120 -232,145 -78,31 -65,46 203,247 63,47 84,73 84,102 0,23 -16,19 -100,-22 z m -167,-399 c 81,-43 147,-101 147,-129 0,-38 -116,-94 -201,-97 -53,-2 -79,14 -79,49 0,27 3,28 29,15 21,-12 42,0 43,25 1,10 -4,44 -11,74 -21,95 -22,100 -10,100 6,0 43,-17 82,-37 z" />
      <path
         id="pBe5n2pky"
         d="m 8853,6450 c -3,-11 -12,-20 -19,-20 -17,0 -19,-86 -3,-210 5,-47 12,-105 14,-130 5,-79 43,-209 71,-245 38,-51 139,-115 183,-117 125,-6 146,4 138,65 -3,21 -8,41 -11,44 -3,4 -24,0 -45,-7 -36,-11 -74,-10 -136,4 -11,2 -23,5 -27,5 -14,2 -36,58 -59,153 -12,54 -20,100 -16,104 3,3 20,-4 37,-16 33,-23 155,-48 184,-37 21,8 35,46 27,70 -6,16 -20,19 -97,22 -89,3 -148,19 -172,47 -7,8 -17,49 -22,89 -15,117 -20,109 58,104 77,-4 176,-26 223,-49 30,-15 33,-15 45,2 19,25 13,33 -40,60 -148,74 -322,106 -333,62 z" />
      <path
         id="pZCq43jOI"
         d="m 9361,6454 c -21,-15 -23,-22 -18,-78 3,-33 11,-99 18,-146 7,-47 12,-114 11,-150 -2,-96 47,-287 86,-332 19,-22 61,-23 69,-2 6,17 -3,74 -42,264 -48,227 -53,255 -56,305 -4,49 -3,50 25,53 41,5 117,-17 143,-41 l 22,-20 12,25 c 9,21 8,30 -7,53 -39,60 -213,106 -263,69 z" />
      <path
         id="p17OfzcdEt"
         d="m 10333,6450 c -3,-11 -12,-20 -20,-20 -14,0 -15,-16 -9,-117 4,-65 11,-136 16,-157 5,-22 7,-43 4,-48 -6,-9 30,-180 45,-221 14,-35 79,-99 134,-131 35,-21 60,-27 115,-29 80,-2 102,10 102,57 0,53 -12,62 -59,46 -36,-11 -74,-11 -136,4 -11,2 -23,5 -27,5 -14,2 -36,58 -59,153 -12,54 -20,100 -16,104 3,3 20,-4 37,-16 33,-23 155,-48 184,-37 21,8 35,46 27,70 -6,16 -20,19 -97,22 -88,2 -148,19 -171,46 -10,12 -33,141 -33,184 0,28 215,-1 291,-39 30,-15 33,-15 45,2 19,25 13,33 -40,60 -148,74 -322,106 -333,62 z" />
      <path
         id="pIAWszHDa"
         d="m 3080,5513 c -47,-101 -138,-430 -195,-703 -78,-372 -23,-715 185,-1148 222,-460 588,-963 1027,-1413 148,-151 177,-168 266,-152 218,37 343,213 421,589 52,251 140,924 123,940 -3,3 -9,-11 -12,-32 -9,-59 -32,-104 -53,-104 -42,0 -121,-120 -122,-184 0,-48 -67,-231 -134,-371 -52,-107 -71,-137 -99,-154 -137,-85 -312,91 -762,769 -247,371 -371,590 -454,804 -90,230 -109,345 -136,816 -22,377 -26,404 -55,343 z" />
      <path
         id="pfGFwC3ic"
         d="m 9468,4998 c -44,-16 -51,-61 -44,-323 3,-126 6,-261 8,-300 1,-41 -2,-69 -7,-69 -6,1 -25,5 -42,9 -22,4 -33,3 -33,-4 0,-20 47,-87 73,-104 27,-18 47,-84 47,-160 0,-23 7,-66 14,-95 8,-30 12,-60 10,-67 -9,-22 16,-137 41,-193 13,-29 45,-79 71,-113 92,-120 189,-166 359,-172 174,-6 203,14 185,128 -9,56 -21,96 -35,113 -1,1 -28,-7 -60,-19 -47,-17 -70,-20 -129,-15 -74,6 -130,20 -154,39 -30,24 -65,117 -103,278 -26,106 -38,174 -32,180 6,6 26,3 53,-6 66,-23 174,-44 279,-55 110,-10 167,4 177,46 11,42 -16,164 -35,164 -3,0 -37,-7 -76,-15 -59,-13 -89,-14 -185,-4 -63,6 -123,16 -134,21 -10,6 -33,10 -52,10 -18,0 -37,5 -42,12 -17,21 -34,86 -37,144 -2,31 -9,109 -15,172 -6,63 -15,172 -19,242 -6,102 -12,132 -26,148 -20,22 -20,22 -57,8 z" />
      <path
         id="p11Ehk9c5M"
         d="m 10302,4864 c -30,-12 -52,-51 -52,-92 0,-75 54,-170 157,-277 32,-34 99,-114 148,-179 50,-65 112,-143 139,-174 55,-65 198,-278 245,-367 47,-87 41,-113 -31,-148 -66,-32 -120,-38 -328,-42 -179,-2 -167,0 -174,-29 -4,-17 5,-48 31,-102 30,-63 43,-79 71,-91 34,-14 123,-16 152,-3 8,4 26,4 40,0 14,-3 41,-3 60,2 19,4 71,12 114,18 81,12 203,65 253,112 30,28 63,101 63,140 0,61 -60,195 -120,267 -30,36 -76,95 -102,131 -56,80 -174,220 -201,239 -10,7 -25,28 -32,45 -8,17 -53,81 -102,141 -111,137 -136,172 -131,186 5,14 159,14 277,0 52,-6 149,-25 215,-42 187,-48 179,-48 199,2 9,24 14,46 9,50 -15,13 -142,58 -252,89 -63,18 -164,47 -224,66 -128,40 -304,75 -358,72 -21,-1 -51,-7 -66,-14 z" />
      <path
         id="poYmfWdl6"
         d="m 8924,4845 c -19,-29 -26,-95 -27,-240 0,-167 3,-211 25,-373 24,-181 25,-248 3,-272 -10,-11 -15,-36 -15,-71 0,-60 24,-185 39,-203 5,-6 17,-43 27,-81 24,-100 52,-137 127,-168 85,-35 111,-38 121,-11 7,17 -43,311 -75,444 -32,136 -69,382 -81,550 -14,192 -15,227 -5,315 l 9,70 -45,33 c -54,39 -81,40 -103,7 z" />
    </g>
  </g>
</svg>
